<svg width="151" height="150" viewBox="0 0 151 150" fill="none" xmlns="http://www.w3.org/2000/svg">
<g clip-path="url(#clip0_411_271)">
<rect x="5.6015" y="5" width="140" height="140" stroke="black" stroke-width="10"/>
<mask id="mask0_411_271" style="mask-type:alpha" maskUnits="userSpaceOnUse" x="0" y="0" width="151" height="150">
<rect x="1.1015" y="0.5" width="149" height="149" fill="black" stroke="black"/>
</mask>
<g mask="url(#mask0_411_271)">
<path d="M103.562 40L107.52 36.9448L103.529 31.7755L99.5799 36.9759L103.562 40ZM67.026 88.1073L63.1314 91.2429L67.1409 96.223L71.0078 91.1314L67.026 88.1073ZM190.385 152.478V157.478H200.561L194.343 149.423L190.385 152.478ZM118.852 152.478V147.478H108.407L114.957 155.614L118.852 152.478ZM132.959 170L132.959 175L143.404 175L136.854 166.864L132.959 170ZM-39.6147 170L-43.534 166.895L-49.9539 175L-39.6147 175L-39.6147 170ZM45.9706 61.9553L49.8652 58.8197L45.9388 53.9429L42.0512 58.8507L45.9706 61.9553ZM99.5799 36.9759L63.0441 85.0833L71.0078 91.1314L107.544 43.0241L99.5799 36.9759ZM194.343 149.423L107.52 36.9448L99.6038 43.0552L186.427 155.533L194.343 149.423ZM118.852 157.478H190.385V147.478H118.852V157.478ZM136.854 166.864L122.747 149.343L114.957 155.614L129.064 173.136L136.854 166.864ZM-39.6147 175L132.959 175L132.959 165L-39.6147 165L-39.6147 175ZM42.0512 58.8507L-43.534 166.895L-35.6953 173.105L49.8899 65.0599L42.0512 58.8507ZM70.9206 84.9717L49.8652 58.8197L42.076 65.0909L63.1314 91.2429L70.9206 84.9717Z" fill="black"/>
</g>
</g>
<defs>
<clipPath id="clip0_411_271">
<rect width="150" height="150" fill="white" transform="translate(0.385315)"/>
</clipPath>
</defs>
</svg>
