<svg width="537" height="537" viewBox="0 0 537 537" fill="none" xmlns="http://www.w3.org/2000/svg">
<rect width="537" height="537" fill="white"/>
<path d="M169.743 364.97V149.403H311.77C346.184 149.403 374.083 177.302 374.083 211.716V211.716C374.083 246.13 346.185 274.028 311.77 274.028H301.666H241.599V278.519H276.485C291.605 278.519 305.461 286.96 312.396 300.396V300.396C327.527 329.712 357.933 348.129 390.924 348.129V348.129" stroke="#C447FF" stroke-width="34.2916"/>
<path d="M147.454 364.97V149.403H289.481C323.895 149.403 351.793 177.302 351.793 211.716V211.716C351.793 246.13 323.895 274.028 289.481 274.028H279.376H219.309V278.519H254.195C269.316 278.519 283.172 286.96 290.107 300.396V300.396C305.237 329.712 335.644 348.129 368.634 348.129V348.129" stroke="black" stroke-width="34.2916"/>
</svg>
