<svg width="38" height="33" viewBox="0 0 38 33" fill="none" xmlns="http://www.w3.org/2000/svg">
<path d="M7.2261 32.7328V2.73277L26.27 2.73277C31.0593 2.73277 34.9418 6.6153 34.9418 11.4046V11.4046C34.9418 16.194 31.0593 20.0765 26.27 20.0765H25.1195H16.9723V20.7015H21.6352C23.7248 20.7015 25.6359 21.8795 26.5749 23.7462L26.6317 23.859C28.6456 27.8627 32.7445 30.389 37.2261 30.389V30.389" stroke="#C447FF" stroke-width="5"/>
<path d="M3 32.7328V2.73277L22.0439 2.73277C26.8332 2.73277 30.7157 6.6153 30.7157 11.4046V11.4046C30.7157 16.194 26.8332 20.0765 22.0439 20.0765H20.8934H12.7462V20.7015H17.4091C19.4987 20.7015 21.4098 21.8795 22.3488 23.7462L22.4056 23.859C24.4195 27.8627 28.5184 30.389 33 30.389V30.389" stroke="black" stroke-width="5"/>
</svg>
